<?xml version="1.0" standalone="no"?><!DOCTYPE svg PUBLIC "-//W3C//DTD SVG 1.1//EN" "http://www.w3.org/Graphics/SVG/1.1/DTD/svg11.dtd"><svg t="1689129557805" class="icon" viewBox="0 0 1228 1024" version="1.1" xmlns="http://www.w3.org/2000/svg" p-id="2272" xmlns:xlink="http://www.w3.org/1999/xlink" width="38.375" height="32"><path d="M0 921.6V102.4a102.4 102.4 0 0 1 102.4-102.4h1024a102.4 102.4 0 0 1 102.4 102.4v819.2a102.4 102.4 0 0 1-102.4 102.4H102.4a102.4 102.4 0 0 1-102.4-102.4z m102.4-515.3792q591.872-31.1296 1024 261.3248V102.4H102.4v303.8208zM921.6 409.6a102.4 102.4 0 1 0 0-204.8 102.4 102.4 0 0 0 0 204.8zM102.4 921.6h1024V793.2928Q703.2832 475.648 102.4 508.7232V921.6z" fill="#3A3A3A" p-id="2273"></path></svg>