<?xml version="1.0" standalone="no"?><!DOCTYPE svg PUBLIC "-//W3C//DTD SVG 1.1//EN" "http://www.w3.org/Graphics/SVG/1.1/DTD/svg11.dtd"><svg t="1689129443671" class="icon" viewBox="0 0 1024 1024" version="1.1" xmlns="http://www.w3.org/2000/svg" p-id="1228" width="32" height="32" xmlns:xlink="http://www.w3.org/1999/xlink"><path d="M512 1024A512 512 0 1 0 512 0a512 512 0 0 0 0 1024z m301.738667-813.738667Q938.666667 335.36 938.666667 512q0 176.725333-124.928 301.738667Q688.64 938.666667 512 938.666667q-176.725333 0-301.738667-124.928Q85.333333 688.64 85.333333 512q0-176.725333 124.928-301.738667Q335.36 85.333333 512 85.333333q176.725333 0 301.738667 124.928z m-530.773334 476.757334a42.666667 42.666667 0 0 0 54.016 54.016l282.794667-94.293334a42.666667 42.666667 0 0 0 26.965333-26.965333l94.293334-282.794667a42.666667 42.666667 0 0 0-54.016-54.016L404.224 377.258667a42.666667 42.666667 0 0 0-26.965333 26.965333L282.965333 687.018667zM572.586667 572.586667l-181.589334 60.586666 60.586667-181.589333 181.589333-60.586667-60.586666 181.589334z" fill="#3A3A3A" p-id="1229"></path></svg>