<?xml version="1.0" standalone="no"?><!DOCTYPE svg PUBLIC "-//W3C//DTD SVG 1.1//EN" "http://www.w3.org/Graphics/SVG/1.1/DTD/svg11.dtd"><svg t="1689129531736" class="icon" viewBox="0 0 1024 1024" version="1.1" xmlns="http://www.w3.org/2000/svg" p-id="1839" xmlns:xlink="http://www.w3.org/1999/xlink" width="32" height="32"><path d="M1024 512A512 512 0 1 1 0 512a512 512 0 0 1 1024 0z m-85.333333 0q0-176.725333-124.928-301.738667Q688.64 85.333333 512 85.333333 335.274667 85.333333 210.261333 210.261333 85.333333 335.36 85.333333 512q0 176.725333 124.928 301.738667Q335.36 938.666667 512 938.666667q176.725333 0 301.738667-124.928Q938.666667 688.64 938.666667 512zM298.666667 341.333333a42.666667 42.666667 0 0 1 85.333333 0v85.333334a42.666667 42.666667 0 0 1-85.333333 0V341.333333z m426.666666 85.333334a42.666667 42.666667 0 0 1-85.333333 0V341.333333a42.666667 42.666667 0 0 1 85.333333 0v85.333334z m-426.666666 170.666666a213.333333 213.333333 0 0 0 426.666666 0h-85.333333q0 52.992-37.546667 90.453334-37.461333 37.546667-90.453333 37.546666t-90.453333-37.546666Q384 650.410667 384 597.333333h-85.333333z" fill="#3A3A3A" p-id="1840"></path></svg>