<?xml version="1.0" standalone="no"?><!DOCTYPE svg PUBLIC "-//W3C//DTD SVG 1.1//EN" "http://www.w3.org/Graphics/SVG/1.1/DTD/svg11.dtd"><svg t="1689129521957" class="icon" viewBox="0 0 1024 1024" version="1.1" xmlns="http://www.w3.org/2000/svg" p-id="1551" xmlns:xlink="http://www.w3.org/1999/xlink" width="32" height="32"><path d="M748.307692 393.846154h157.538462a78.769231 78.769231 0 0 1 78.769231 78.769231v472.615384a78.769231 78.769231 0 0 1-78.769231 78.769231H118.153846a78.769231 78.769231 0 0 1-78.769231-78.769231V472.615385a78.769231 78.769231 0 0 1 78.769231-78.769231h157.538462V236.307692a236.307692 236.307692 0 0 1 472.615384 0v78.769231H669.538462V236.307692q0-65.220923-46.15877-111.379692T512 78.769231q-65.220923 0-111.379692 46.158769T354.461538 236.307692v157.538462h393.846154z m157.538462 551.384615V472.615385H118.153846v472.615384h787.692308zM472.615385 630.153846a39.384615 39.384615 0 0 1 78.76923 0v157.538462a39.384615 39.384615 0 0 1-78.76923 0V630.153846z" fill="#3A3A3A" p-id="1552"></path></svg>