<?xml version="1.0" standalone="no"?><!DOCTYPE svg PUBLIC "-//W3C//DTD SVG 1.1//EN" "http://www.w3.org/Graphics/SVG/1.1/DTD/svg11.dtd"><svg t="1689127595617" class="icon" viewBox="0 0 1024 1024" version="1.1" xmlns="http://www.w3.org/2000/svg" p-id="1192" width="64" height="64" xmlns:xlink="http://www.w3.org/1999/xlink"><path d="M668.144 1.248L352.672 83.28 0 0v935.32l353.224 87.92 189.6-48.096a307.248 307.248 0 0 1-37.904-72.872l-111.888 28.384V155.392l235.424-61.216v444.728a305.648 305.648 0 0 1 79.8-36.4v-408.88l233.424 58.104v376.48a309.32 309.32 0 0 1 79.8 63.152V89.2L668.144 1.24zM79.808 100.992l233.416 55.12v774.784L79.808 872.8V100.992z m851.68 615.952l50.664-50.768-56.432-56.536-50.664 50.768a158.408 158.408 0 0 0-41.104-17.152V572.24h-79.808v71.024a158.296 158.296 0 0 0-41.104 17.152l-50.672-50.768-56.424 56.536 50.664 50.768a159.064 159.064 0 0 0-17.12 41.192h-72.88v79.96h72.88c3.776 14.64 9.6 28.48 17.112 41.184l-50.656 50.768 56.424 56.536 50.664-50.76c12.688 7.52 26.48 13.36 41.112 17.144V1024h79.8v-71.032a158.352 158.352 0 0 0 41.12-17.144l50.648 50.76 56.432-56.536-50.656-50.768a159.224 159.224 0 0 0 17.112-41.184h72.88v-79.96h-72.88a159.064 159.064 0 0 0-17.12-41.192z m-183.472 15.92a79.208 79.208 0 0 1 46.024-14.704c44.008 0 79.808 35.864 79.808 79.96 0 44.08-35.8 79.96-79.808 79.96-44 0-79.8-35.88-79.8-79.96A79.6 79.6 0 0 1 728.912 752l19.104-19.144z" fill="#000000" p-id="1193"></path></svg>