<?xml version="1.0" standalone="no"?><!DOCTYPE svg PUBLIC "-//W3C//DTD SVG 1.1//EN" "http://www.w3.org/Graphics/SVG/1.1/DTD/svg11.dtd"><svg t="1689129540244" class="icon" viewBox="0 0 1229 1024" version="1.1" xmlns="http://www.w3.org/2000/svg" p-id="2127" xmlns:xlink="http://www.w3.org/1999/xlink" width="38.40625" height="32"><path d="M1023.768576 427.008a409.6 409.6 0 1 0-818.4832 0A307.2 307.2 0 0 0 307.378176 1024h614.4a307.2 307.2 0 0 0 101.9904-596.992zM397.490176 192.512Q487.294976 102.4 614.578176 102.4q127.2832 0 217.1904 90.0096Q921.778176 282.3168 921.778176 409.6q0 6.5536-0.3072 13.1072l-3.1744 75.776 71.4752 25.1904q61.44 21.504 99.1232 74.752T1126.578176 716.8q0 84.7872-60.0064 144.7936T921.778176 921.6H307.378176q-84.7872 0-144.7936-60.0064T102.578176 716.8q0-65.1264 37.6832-118.3744 37.5808-53.248 99.1232-74.752l71.4752-25.1904-3.1744-75.776Q307.378176 416.1536 307.378176 409.6q0-127.2832 90.0096-217.1904zM614.578176 204.8q84.7872 0 144.7936 60.0064T819.378176 409.6a51.2 51.2 0 0 1-102.4 0q0-42.3936-30.0032-72.3968T614.578176 307.2a51.2 51.2 0 0 1 0-102.4z" fill="#3A3A3A" p-id="2128"></path></svg>