<?xml version="1.0" standalone="no"?><!DOCTYPE svg PUBLIC "-//W3C//DTD SVG 1.1//EN" "http://www.w3.org/Graphics/SVG/1.1/DTD/svg11.dtd"><svg t="1689129536114" class="icon" viewBox="0 0 1024 1024" version="1.1" xmlns="http://www.w3.org/2000/svg" p-id="1982" xmlns:xlink="http://www.w3.org/1999/xlink" width="32" height="32"><path d="M423.671695 0Q456.809818 0 480.262644 23.452826l520.28453 520.28453q23.452826 23.452826 23.452826 56.590949t-23.452826 56.590948L656.919253 1000.547174q-23.452826 23.452826-56.590948 23.452826t-56.590949-23.452826L23.452826 480.262644Q0 456.809818 0 423.671695V80.043774Q0 46.905652 23.452826 23.452826T80.043774 0h343.627921z m0 80.043774H80.043774v343.627921l520.284531 520.284531L943.956226 600.328305 423.671695 80.043774zM240.131322 320.175096a80.043774 80.043774 0 1 0 0-160.087548 80.043774 80.043774 0 0 0 0 160.087548z" fill="#3A3A3A" p-id="1983"></path></svg>