<?xml version="1.0" standalone="no"?><!DOCTYPE svg PUBLIC "-//W3C//DTD SVG 1.1//EN" "http://www.w3.org/Graphics/SVG/1.1/DTD/svg11.dtd"><svg t="1689129526391" class="icon" viewBox="0 0 1024 1024" version="1.1" xmlns="http://www.w3.org/2000/svg" p-id="1696" xmlns:xlink="http://www.w3.org/1999/xlink" width="32" height="32"><path d="M512 1024A512 512 0 1 0 512 0a512 512 0 0 0 0 1024z m301.738667-813.738667Q938.666667 335.36 938.666667 512q0 176.725333-124.928 301.738667Q688.64 938.666667 512 938.666667q-176.725333 0-301.738667-124.928Q85.333333 688.64 85.333333 512q0-176.725333 124.928-301.738667Q335.36 85.333333 512 85.333333q176.725333 0 301.738667 124.928zM581.888 432.896a17.066667 17.066667 0 0 1-16.213333-11.776l-37.461334-115.2a17.066667 17.066667 0 0 0-32.426666 0l-37.461334 115.2a17.066667 17.066667 0 0 1-16.213333 11.776H321.024a17.066667 17.066667 0 0 0-9.984 30.890667l97.962667 71.168a17.066667 17.066667 0 0 1 6.144 19.029333l-37.376 115.2a17.066667 17.066667 0 0 0 26.282666 19.029333l97.877334-71.168a17.066667 17.066667 0 0 1 20.138666 0l97.877334 71.168a17.066667 17.066667 0 0 0 26.282666-19.029333l-37.376-115.2a17.066667 17.066667 0 0 1 6.144-19.029333l97.962667-71.168a17.066667 17.066667 0 0 0-9.984-30.890667h-121.173333z" fill="#3A3A3A" p-id="1697"></path></svg>