<?xml version="1.0" standalone="no"?><!DOCTYPE svg PUBLIC "-//W3C//DTD SVG 1.1//EN" "http://www.w3.org/Graphics/SVG/1.1/DTD/svg11.dtd"><svg t="1689129563091" class="icon" viewBox="0 0 1149 1024" version="1.1" xmlns="http://www.w3.org/2000/svg" p-id="2415" xmlns:xlink="http://www.w3.org/1999/xlink" width="35.90625" height="32"><path d="M622.543644 861.983508H1053.535398a95.775945 95.775945 0 0 0 95.775945-95.775946V95.775945a95.775945 95.775945 0 0 0-95.775945-95.775945H95.775945a95.775945 95.775945 0 0 0-95.775945 95.775945v670.431617a95.775945 95.775945 0 0 0 95.775945 95.775946h143.663918v114.06915a47.887973 47.887973 0 0 0 69.341785 42.811848L622.543644 861.983508zM95.775945 766.207562V95.775945h957.759453v670.431617H599.940521L335.215809 898.569919V766.207562H95.775945z m191.551891-263.383849a71.831959 71.831959 0 1 0 0-143.663918 71.831959 71.831959 0 0 0 0 143.663918z m287.327836 0a71.831959 71.831959 0 1 0 0-143.663918 71.831959 71.831959 0 0 0 0 143.663918z m287.327836 0a71.831959 71.831959 0 1 0 0-143.663918 71.831959 71.831959 0 0 0 0 143.663918z" fill="#3A3A3A" p-id="2416"></path></svg>